<?xml version="1.0" encoding="UTF-8"?>
<svg width="76px" height="80px" viewBox="0 0 76 80" version="1.1" xmlns="http://www.w3.org/2000/svg" xmlns:xlink="http://www.w3.org/1999/xlink">
    <!-- Generator: sketchtool 55.2 (78181) - https://sketchapp.com -->
    <title>18A52054-8E58-47B8-8422-A4726499EC7C</title>
    <desc>Created with sketchtool.</desc>
    <defs>
        <filter x="-3.2%" y="-3.4%" width="106.5%" height="106.9%" filterUnits="objectBoundingBox" id="filter-1">
            <feOffset dx="0" dy="2" in="SourceAlpha" result="shadowOffsetOuter1"></feOffset>
            <feGaussianBlur stdDeviation="10" in="shadowOffsetOuter1" result="shadowBlurOuter1"></feGaussianBlur>
            <feColorMatrix values="0 0 0 0 0.062745098   0 0 0 0 0.250980392   0 0 0 0 0.317647059  0 0 0 0.049770542 0" type="matrix" in="shadowBlurOuter1" result="shadowMatrixOuter1"></feColorMatrix>
            <feMerge>
                <feMergeNode in="shadowMatrixOuter1"></feMergeNode>
                <feMergeNode in="SourceGraphic"></feMergeNode>
            </feMerge>
        </filter>
    </defs>
    <g id="Page-1" stroke="none" stroke-width="1" fill="none" fill-rule="evenodd">
        <g id="fetch-scala" transform="translate(-234.000000, -915.000000)" stroke="#DD3D3D" stroke-width="2">
            <g id="home-scala" filter="url(#filter-1)" transform="translate(120.000000, 816.000000)">
                <g id="nav" transform="translate(134.000000, 112.000000)">
                    <g id="nav-brand">
                        <g id="navbar-brand" transform="translate(0.000000, 5.000000)">
                            <g>
                                <path d="M17.9938,20.4764 L34.0018,11.2384" id="Stroke-17"></path>
                                <path d="M1.9998,11.2344 L17.9938,2.0004" id="Stroke-19"></path>
                                <path d="M1.9998,11.2344 L1.9998,29.7064" id="Stroke-21"></path>
                                <path d="M1.9998,29.707 L17.9998,38.947" id="Stroke-23"></path>
                                <path d="M1.9998,11.2344 L18.0058,20.4744" id="Stroke-25"></path>
                                <path d="M18.0056,20.4746 L1.9996,29.7066" id="Stroke-33"></path>
                                <path d="M34.0036,29.7148 L17.9996,38.9468" id="Stroke-37"></path>
                                <path d="M18.0056,2 L1.9996,29.708" id="Stroke-41"></path>
                                <path d="M3.9998,29.707 C3.9998,30.813 3.1058,31.707 1.9998,31.707 C0.8958,31.707 -0.0002,30.813 -0.0002,29.707 C-0.0002,28.601 0.8958,27.707 1.9998,27.707 C3.1058,27.707 3.9998,28.601 3.9998,29.707 Z" id="Stroke-3" fill="#FFFFFF"></path>
                                <path d="M3.9998,11.2344 C3.9998,12.3384 3.1058,13.2344 1.9998,13.2344 C0.8958,13.2344 -0.0002,12.3384 -0.0002,11.2344 C-0.0002,10.1284 0.8958,9.2344 1.9998,9.2344 C3.1058,9.2344 3.9998,10.1284 3.9998,11.2344 Z" id="Stroke-5" fill="#FFFFFF"></path>
                                <path d="M19.9998,38.9472 C19.9998,40.0512 19.1058,40.9472 17.9998,40.9472 C16.8958,40.9472 15.9998,40.0512 15.9998,38.9472 C15.9998,37.8412 16.8958,36.9472 17.9998,36.9472 C19.1058,36.9472 19.9998,37.8412 19.9998,38.9472 Z" id="Stroke-7" fill="#FFFFFF"></path>
                                <path d="M35.9998,11.2382 C35.9998,12.3442 35.1058,13.2382 33.9998,13.2382 C32.8958,13.2382 31.9998,12.3442 31.9998,11.2382 C31.9998,10.1342 32.8958,9.2382 33.9998,9.2382 C35.1058,9.2382 35.9998,10.1342 35.9998,11.2382 Z" id="Stroke-9" fill="#FFFFFF"></path>
                                <path d="M35.9998,29.7148 C35.9998,30.8208 35.1058,31.7148 33.9998,31.7148 C32.8958,31.7148 31.9998,30.8208 31.9998,29.7148 C31.9998,28.6108 32.8958,27.7148 33.9998,27.7148 C35.1058,27.7148 35.9998,28.6108 35.9998,29.7148 Z" id="Stroke-11" fill="#FFFFFF"></path>
                                <path d="M20.0056,2 C20.0056,3.106 19.1116,4 18.0056,4 C16.9016,4 16.0056,3.106 16.0056,2 C16.0056,0.896 16.9016,0 18.0056,0 C19.1116,0 20.0056,0.896 20.0056,2 Z" id="Stroke-13" fill="#FFFFFF"></path>
                            </g>
                        </g>
                    </g>
                </g>
            </g>
        </g>
    </g>
</svg>